<svg xmlns="http://www.w3.org/2000/svg" viewBox="0 0 22.963 20.008" overflow="visible" id="svg-1309805682_1234"><path d="M 9.225 3.973 C 9.799 3.735 10.04 3.058 9.781 2.508 L 8.873 0.623 C 8.614 0.092 7.984 -0.146 7.428 0.092 C 5.854 0.751 4.501 1.612 3.427 2.655 C 2.112 3.881 1.223 5.291 0.741 6.847 C 0.259 8.421 0 10.562 0 13.29 L 0 18.909 C 0 19.513 0.5 20.008 1.111 20.008 L 8.392 20.008 C 9.003 20.008 9.503 19.513 9.503 18.909 L 9.503 11.716 C 9.503 11.111 9.003 10.617 8.392 10.617 L 4.909 10.617 C 4.946 8.768 5.391 7.286 6.206 6.169 C 6.873 5.273 7.873 4.54 9.225 3.973 Z M 22.303 3.973 C 22.878 3.735 23.118 3.058 22.859 2.508 L 21.951 0.642 C 21.692 0.111 21.062 -0.127 20.506 0.111 C 18.95 0.77 17.616 1.63 16.524 2.655 C 15.208 3.9 14.301 5.309 13.819 6.865 C 13.337 8.403 13.097 10.544 13.097 13.29 L 13.097 18.91 C 13.097 19.514 13.597 20.008 14.208 20.008 L 21.488 20.008 C 22.1 20.008 22.6 19.514 22.6 18.91 L 22.6 11.716 C 22.6 11.112 22.1 10.618 21.488 10.618 L 17.987 10.618 C 18.024 8.769 18.469 7.286 19.284 6.169 C 19.951 5.273 20.951 4.54 22.303 3.973 Z" fill="var(--token-d52e5dda-bf93-4e3b-9f9c-1648f76a7a7a, rgb(253, 58, 37)) /* {&quot;name&quot;:&quot;Primitive&quot;} */"/></svg>