<svg xmlns="http://www.w3.org/2000/svg" width="176" height="22" viewBox="0 0 176 22" fill="none" id="svg47908925_3303">
<path d="M122.487 12.3463C122.558 12.0143 122.402 11.7199 122.101 11.6166L110.898 7.77346C109.386 7.25482 108.603 5.7773 108.959 4.11122C109.412 1.98282 111.547 0.257324 113.728 0.257324H128.225L127.568 3.34306H113.071C112.636 3.34306 112.211 3.68698 112.121 4.11122C112.05 4.44322 112.205 4.73754 112.507 4.84098L123.71 8.68402C125.222 9.20274 126.004 10.6802 125.649 12.3463C125.196 14.4747 123.06 16.2002 120.879 16.2002H106.383L107.04 13.1145H121.536C121.971 13.1145 122.397 12.7705 122.487 12.3463Z" fill="#71717A"/>
<path d="M87.6998 0L84.2761 16.0714H81.1133L84.5379 0H87.6998Z" fill="#71717A"/>
<path d="M171.496 0C174.115 0 175.797 2.07232 175.252 4.62856L172.842 15.9429H169.68L172.091 4.62856C172.272 3.77648 171.711 3.08568 170.838 3.08568H165.041L162.302 15.9429H159.14L161.879 3.08568H154.501L151.762 15.9429H148.6L151.339 3.08568H154.501L155.158 0H171.496Z" fill="#71717A"/>
<path fill-rule="evenodd" clip-rule="evenodd" d="M35.7353 0.257324C38.3551 0.257324 40.0374 2.32962 39.4929 4.88586L37.7394 13.1145H34.5775L33.9201 16.2002H21.7988C19.2202 16.2002 17.55 14.1922 18.018 11.6911L18.0419 11.5716L19.795 3.34306H22.9571L23.6144 0.257324H35.7353ZM21.2039 11.5716L21.189 11.651C21.0577 12.4662 21.6103 13.1145 22.4562 13.1145H34.5775L36.3302 4.88586C36.5119 4.03378 35.9515 3.34306 35.0779 3.34306H22.9571L21.2039 11.5716Z" fill="#71717A"/>
<path fill-rule="evenodd" clip-rule="evenodd" d="M77.8959 0.257324C80.5158 0.257324 82.1972 2.32962 81.6528 4.88586L79.9 13.1145H76.7381L76.0807 16.2002H63.9589C61.3807 16.2002 59.7104 14.1922 60.178 11.6911L60.202 11.5716L61.9556 3.34306H65.1175L65.7749 0.257324H77.8959ZM63.364 11.5716L63.3496 11.651C63.2183 12.4662 63.7707 13.1145 64.6163 13.1145H76.7381L78.4908 4.88586C78.6725 4.03378 78.1121 3.34306 77.2385 3.34306H65.1175L63.364 11.5716Z" fill="#71717A"/>
<path d="M93.5759 3.34306C92.7024 3.34306 91.8472 4.03378 91.6663 4.88586L88.16 21.3431H84.998L88.5043 4.88586C89.0488 2.32962 91.6134 0.257324 94.2333 0.257324H104.773L104.116 3.34306H107.278L105.525 11.5716C104.98 14.1279 102.415 16.2002 99.7958 16.2002H92.4173L93.0747 13.1145H100.453C101.326 13.1145 102.181 12.4237 102.363 11.5716L104.116 3.34306H93.5759Z" fill="#71717A"/>
<path d="M43.4577 9.77131C43.2767 10.6234 43.8372 11.3142 44.71 11.3142H52.0884L51.431 14.3999H44.0526C41.4335 14.3999 39.7512 12.3276 40.2957 9.77131L41.6105 3.59987H44.7724L45.4298 0.51416H55.9702C58.5901 0.51416 60.2716 2.58643 59.7271 5.14275L57.2073 16.9713C56.6628 19.5276 54.0974 21.5999 51.4775 21.5999H41.3326L41.9908 18.5142H52.1356C53.0084 18.5142 53.8635 17.8234 54.0453 16.9713L56.5651 5.14275C56.7469 4.29067 56.1864 3.59987 55.3128 3.59987H44.7724L43.4577 9.77131Z" fill="#71717A"/>
<path d="M3.26445 11.5716L5.67503 0.257324H2.51299L0.102405 11.5716C-0.44223 14.1279 1.2398 16.2002 3.85929 16.2002H15.2103L15.8678 13.1145H4.51674C3.64358 13.1145 3.08293 12.4237 3.26445 11.5716Z" fill="#71717A"/>
<path d="M130.766 11.8284L130.752 11.9078C130.621 12.723 131.173 13.3713 132.019 13.3713H144.14L146.88 0.51416H150.042L147.302 13.3713H144.14L143.483 16.457H131.361C128.783 16.457 127.113 14.449 127.58 11.948L127.604 11.8284L130.015 0.51416H133.177L130.766 11.8284Z" fill="#71717A"/>
</svg>