<svg xmlns="http://www.w3.org/2000/svg" width="181" height="24" fill="none"><g fill="#fff" clip-path="url(#a)"><path fill-rule="evenodd" d="M14.102 0q.35 0 .696.017a.01.01 0 0 0 .008-.008q0-.008.009-.008h12.89a.499.499 0 0 1 .353.852l-3.38 3.382h7.209c.476 0 .912.281 1.078.728.569 1.532.88 3.19.88 4.92C33.845 17.678 27.531 24 19.743 24a14 14 0 0 1-.696-.017.01.01 0 0 0-.009.008.01.01 0 0 1-.008.008H6.14a.499.499 0 0 1-.353-.852l3.379-3.382H1.958c-.476 0-.912-.281-1.078-.728a14.1 14.1 0 0 1-.88-4.92C0 6.322 6.314 0 14.102 0m4.826 9.993a6.33 6.33 0 0 0-4.826-2.228 6.35 6.35 0 0 0-5.984 8.47h4.573l2.226-2.228a6.33 6.33 0 0 0 4.826 2.228 6.35 6.35 0 0 0 5.984-8.47h-4.573z" clip-rule="evenodd"/><path d="M174.417 18.104V9.662a.48.48 0 0 0-.462-.463h-.316a.48.48 0 0 0-.437.292l-2.941 6.959c-.413 1.021-1.409 1.654-2.503 1.654a2.64 2.64 0 0 1-2.479-1.654l-2.965-6.959a.42.42 0 0 0-.413-.292h-.316a.48.48 0 0 0-.462.463v8.442h-2.746V9.662c0-1.776 1.434-3.236 3.208-3.236h.316a3.22 3.22 0 0 1 2.965 1.995l2.892 6.86 2.892-6.86a3.23 3.23 0 0 1 2.989-1.995h.316c1.775 0 3.208 1.46 3.208 3.236v8.442zm-28.574 0a5.054 5.054 0 0 1-5.056-5.06V6.425h2.746v6.617a2.326 2.326 0 0 0 2.31 2.312h5.832a2.325 2.325 0 0 0 2.309-2.312V6.426h2.746v6.617a5.054 5.054 0 0 1-5.055 5.061zm-10.116-2.749c.462 0 .851-.39.851-.852a.854.854 0 0 0-.803-.851h-6.488a3.59 3.59 0 0 1-3.598-3.601c0-1.995 1.605-3.625 3.598-3.625h10.061v2.773h-10.061a.86.86 0 0 0-.851.852c0 .462.389.851.851.851h6.537a3.61 3.61 0 0 1 3.524 3.601c0 1.995-1.629 3.601-3.621 3.601h-10.038v-2.75h10.038Zm-25.457 2.749V9.662c0-1.776 1.434-3.236 3.208-3.236h7.072c2.284 0 4.131 1.873 4.131 4.16s-1.847 4.16-4.131 4.16h-7.534v3.358zm2.746-8.442v2.311h7.534c.753 0 1.385-.633 1.385-1.387S121.303 9.2 120.55 9.2h-7.072a.48.48 0 0 0-.462.463Zm-7.373-3.236h2.746v11.678h-2.746zm-7.276 8.929a3.09 3.09 0 0 0 3.087-3.09c0-1.679-1.385-3.066-3.087-3.066H94.09c-1.701 0-3.086 1.387-3.086 3.066a3.09 3.09 0 0 0 3.086 3.09zm0-8.93c3.233 0 5.833 2.628 5.833 5.84 0 3.236-2.6 5.84-5.833 5.84H94.09a5.82 5.82 0 0 1-5.832-5.84c0-3.212 2.6-5.84 5.832-5.84zM77.571 18.104a5.82 5.82 0 0 1-5.833-5.84c0-3.21 2.6-5.838 5.833-5.838h8.433v2.773h-8.433c-1.7 0-3.086 1.387-3.086 3.066a3.09 3.09 0 0 0 3.086 3.09h6.198c.461 0 .85-.39.85-.852a.86.86 0 0 0-.85-.851h-6.66v-2.75h6.66c1.993 0 3.62 1.606 3.62 3.601s-1.627 3.601-3.62 3.601H77.57Zm-12.572-2.749c1.7 0 3.086-1.387 3.086-3.09 0-1.679-1.385-3.066-3.086-3.066h-4.277c-1.702 0-3.087 1.387-3.087 3.066a3.093 3.093 0 0 0 3.087 3.09zm0-8.93c3.232 0 5.832 2.628 5.832 5.84 0 3.236-2.6 5.84-5.832 5.84h-4.277a5.82 5.82 0 0 1-5.833-5.84c0-3.212 2.6-5.84 5.832-5.84H65Zm-21.356 8.467c0 .244.218.463.461.463h10.28v2.749h-10.28a3.207 3.207 0 0 1-3.207-3.212v-8.54h2.746zm136.863-8.539a1.41 1.41 0 1 1-2.819.002 1.41 1.41 0 0 1 2.819-.002"/></g><defs><clipPath id="a"><path fill="#fff" d="M0 0h181v24H0z"/></clipPath></defs></svg>